<svg width="24" height="24" viewBox="0 0 24 24" fill="none" xmlns="http://www.w3.org/2000/svg">
<path d="M2.85714 7.42855H21.1429M5.14285 2.85712H18.8571C19.4633 2.85712 20.0447 3.09793 20.4734 3.52659C20.902 3.95524 21.1429 4.53662 21.1429 5.14283V18.8571C21.1429 19.4633 20.902 20.0447 20.4734 20.4734C20.0447 20.902 19.4633 21.1428 18.8571 21.1428H5.14285C4.53664 21.1428 3.95526 20.902 3.52661 20.4734C3.09796 20.0447 2.85714 19.4633 2.85714 18.8571V5.14283C2.85714 4.53662 3.09796 3.95524 3.52661 3.52659C3.95526 3.09793 4.53664 2.85712 5.14285 2.85712V2.85712Z" stroke="#FA8B02" stroke-linecap="round" stroke-linejoin="round"/>
<path d="M12 13.1428C12.6312 13.1428 13.1429 12.6312 13.1429 12C13.1429 11.3688 12.6312 10.8571 12 10.8571C11.3688 10.8571 10.8571 11.3688 10.8571 12C10.8571 12.6312 11.3688 13.1428 12 13.1428Z" fill="#FA8B02"/>
<path d="M7.42857 13.1428C8.05975 13.1428 8.57143 12.6312 8.57143 12C8.57143 11.3688 8.05975 10.8571 7.42857 10.8571C6.79739 10.8571 6.28571 11.3688 6.28571 12C6.28571 12.6312 6.79739 13.1428 7.42857 13.1428Z" fill="#FA8B02"/>
<path d="M16.5714 13.1428C17.2026 13.1428 17.7143 12.6312 17.7143 12C17.7143 11.3688 17.2026 10.8571 16.5714 10.8571C15.9402 10.8571 15.4286 11.3688 15.4286 12C15.4286 12.6312 15.9402 13.1428 16.5714 13.1428Z" fill="#FA8B02"/>
<path d="M12 17.7142C12.6312 17.7142 13.1429 17.2026 13.1429 16.5714C13.1429 15.9402 12.6312 15.4285 12 15.4285C11.3688 15.4285 10.8571 15.9402 10.8571 16.5714C10.8571 17.2026 11.3688 17.7142 12 17.7142Z" fill="#FA8B02"/>
<path d="M7.42857 17.7142C8.05975 17.7142 8.57143 17.2026 8.57143 16.5714C8.57143 15.9402 8.05975 15.4285 7.42857 15.4285C6.79739 15.4285 6.28571 15.9402 6.28571 16.5714C6.28571 17.2026 6.79739 17.7142 7.42857 17.7142Z" fill="#FA8B02"/>
<path d="M16.5714 17.7142C17.2026 17.7142 17.7143 17.2026 17.7143 16.5714C17.7143 15.9402 17.2026 15.4285 16.5714 15.4285C15.9402 15.4285 15.4286 15.9402 15.4286 16.5714C15.4286 17.2026 15.9402 17.7142 16.5714 17.7142Z" fill="#FA8B02"/>
</svg>
