<svg width="25" height="24" viewBox="0 0 25 24" fill="none" xmlns="http://www.w3.org/2000/svg">
<path d="M4.89437 9.94009C4.56587 9.90255 4.36956 9.89864 4.18263 9.85484C3.97739 9.80729 3.7961 9.68749 3.67189 9.51733C3.54767 9.34716 3.48882 9.13799 3.50609 8.92802C3.51858 8.71755 3.60793 8.519 3.75715 8.37007C3.90638 8.22113 4.1051 8.13217 4.31559 8.12008C4.73794 8.10522 5.17593 8.01919 5.567 8.29371C5.75393 8.42511 5.74298 8.2155 5.77348 8.12868C5.92521 7.69617 6.05583 7.25974 6.20756 6.82957C6.48053 6.05291 6.97796 5.69548 7.79216 5.69548C10.9332 5.69548 14.0745 5.69548 17.216 5.69548C18.0122 5.69548 18.5105 6.04978 18.7803 6.80376C18.9367 7.24566 19.0838 7.69147 19.2222 8.13963C19.2785 8.32109 19.3301 8.35785 19.5131 8.25148C19.9472 8.00041 20.4275 8.06924 20.8834 8.15919C21.2604 8.2374 21.5037 8.62846 21.4935 9.01953C21.4902 9.2101 21.4245 9.39434 21.3066 9.54406C21.1887 9.69379 21.0249 9.80075 20.8404 9.84859C20.6449 9.89708 20.4384 9.90333 20.1146 9.94401C20.4994 10.3085 20.8185 10.6119 21.1361 10.9107C21.2567 11.0202 21.3517 11.1548 21.4144 11.3051C21.4771 11.4555 21.506 11.6177 21.499 11.7804C21.4896 13.0063 21.4896 14.2316 21.499 15.4565C21.499 15.8217 21.3981 16.133 21.0876 16.3332C20.9139 16.4451 20.8834 16.5835 20.8959 16.7618C20.9882 18.0367 20.6245 18.366 19.3372 18.2956C18.8953 18.2721 18.451 18.2956 18.0075 18.2909C17.3615 18.2846 17.015 17.9452 16.9963 17.3085C16.9728 16.4943 16.9728 16.4943 16.168 16.4943H8.50311C8.0049 16.4943 8.00568 16.4943 8.00333 17.0105C8.00333 17.1537 8.00881 17.2984 7.99707 17.4407C7.95484 17.9241 7.61931 18.2721 7.13673 18.2846C6.4203 18.3034 5.70231 18.3026 4.98588 18.2846C4.48766 18.2729 4.14431 17.91 4.11224 17.4094C4.10325 17.2792 4.10325 17.1486 4.11224 17.0184C4.13414 16.6985 4.11224 16.4239 3.79078 16.2159C3.56162 16.0736 3.50061 15.7959 3.50061 15.5198C3.50531 14.2548 3.50531 12.9904 3.50061 11.7265C3.49559 11.583 3.52141 11.4401 3.57633 11.3075C3.63124 11.1749 3.71398 11.0556 3.81894 10.9576C4.14743 10.644 4.47906 10.3327 4.89437 9.94009ZM12.4576 15.8843C15.0892 15.8843 17.7208 15.8843 20.3524 15.8843C20.8389 15.8843 20.8881 15.8334 20.8897 15.3446C20.8897 14.7056 20.8983 14.0674 20.8897 13.4292C20.8811 12.791 21.0805 12.0823 20.8177 11.5372C20.5549 10.9921 19.9488 10.5885 19.4936 10.1231C19.485 10.1137 19.4748 10.1051 19.467 10.095C19.3442 9.93853 19.1846 9.89473 18.9875 9.89551C14.6598 9.89916 10.3343 9.89916 6.01125 9.89551C5.92131 9.89058 5.83139 9.90562 5.74795 9.93957C5.66451 9.97351 5.58963 10.0255 5.52867 10.0918C5.13761 10.4946 4.74655 10.8935 4.34062 11.2799C4.25961 11.3537 4.19609 11.4447 4.15468 11.5461C4.11328 11.6476 4.09504 11.7571 4.10129 11.8665C4.10989 13.0131 4.10129 14.1597 4.10598 15.3078C4.10598 15.8506 4.14352 15.889 4.68006 15.8897C7.27204 15.8897 9.86454 15.8892 12.4576 15.8882V15.8843ZM6.02846 9.25104C6.055 9.26457 6.08275 9.27557 6.11136 9.28389C10.3171 9.28754 14.5224 9.29275 18.7271 9.29953C19.0094 9.29953 18.9375 9.16266 18.8835 9.01014C18.675 8.38027 18.4651 7.75092 18.2539 7.12208C18.042 6.47761 17.7956 6.29928 17.1097 6.2985C15.3368 6.2985 13.5661 6.2985 11.7974 6.2985C10.4678 6.2985 9.1382 6.30398 7.81327 6.2985C7.41752 6.2985 7.04366 6.39158 6.89662 6.76778C6.5736 7.57963 6.31628 8.42198 6.02846 9.25104ZM6.03784 16.4943C5.83058 16.4943 5.62253 16.4896 5.41214 16.4943C4.58934 16.5162 4.70822 16.3199 4.69023 17.2475C4.68554 17.5604 4.82476 17.6965 5.13761 17.6902C5.60689 17.6816 6.07225 17.6902 6.53997 17.6902C7.42534 17.6902 7.45349 17.6535 7.40031 16.7673C7.39171 16.5671 7.33305 16.4889 7.12891 16.4889C6.76522 16.5022 6.40153 16.4951 6.03784 16.4943ZM18.95 16.4943C18.7427 16.4943 18.5347 16.4896 18.3243 16.4943C17.4999 16.5155 17.6071 16.3207 17.5907 17.2405C17.5852 17.5807 17.7471 17.7004 18.0685 17.6918C18.5378 17.6785 19.0032 17.6918 19.4701 17.6918C20.3133 17.6918 20.2984 17.6918 20.3062 16.8541C20.3062 16.5467 20.1983 16.4748 19.9206 16.492C19.6007 16.51 19.2746 16.4943 18.95 16.4943ZM4.73012 9.29327C4.83805 9.29327 4.91627 9.29953 4.99292 9.29327C5.11962 9.28076 5.29638 9.35506 5.29873 9.11729C5.29873 8.91863 5.25571 8.7536 5.03124 8.71137C4.94266 8.69402 4.85204 8.68955 4.76219 8.69807C4.51582 8.72623 4.13648 8.58467 4.13648 8.99606C4.13648 9.40746 4.51738 9.25808 4.73012 9.29327ZM20.1764 9.29327C20.325 9.29327 20.4415 9.29875 20.5573 9.29327C20.7489 9.28154 20.8787 9.1916 20.8756 8.98042C20.8756 8.78645 20.7364 8.71215 20.5675 8.70198C20.3875 8.69103 20.207 8.69103 20.027 8.70198C19.8127 8.71293 19.7001 8.83651 19.6985 9.05238C19.6946 9.50054 20.0489 9.19394 20.1764 9.29327Z" fill="#333333" stroke="#333333" stroke-width="0.2"/>
<path d="M12.4952 11.6968C13.5245 11.6968 14.553 11.6968 15.5815 11.6968C15.9186 11.6968 16.2119 11.7609 16.3409 12.1144C16.47 12.4679 16.2713 12.7096 16.0281 12.963C15.3922 13.6317 14.6546 13.8844 13.7231 13.8163C12.6477 13.7381 11.5621 13.7882 10.482 13.803C10.3135 13.8126 10.1449 13.7867 9.98707 13.7272C9.8292 13.6676 9.68554 13.5757 9.56532 13.4573C9.35962 13.2587 9.12811 13.0874 8.90599 12.9098C8.65023 12.7002 8.52744 12.4406 8.64788 12.1175C8.76364 11.8047 9.01392 11.7022 9.32912 11.7022C10.3871 11.7007 11.4424 11.6988 12.4952 11.6968ZM9.26264 12.3287C9.7413 12.9685 10.1636 13.1891 10.8582 13.1891C11.9242 13.1891 12.995 13.1281 14.0547 13.2094C14.8369 13.2696 15.26 12.8246 15.7848 12.3248L9.26264 12.3287Z" fill="#333333" stroke="#333333" stroke-width="0.2"/>
<path d="M6.44996 13.7937C6.08627 13.7937 5.7218 13.8038 5.35498 13.7937C4.92481 13.7796 4.69878 13.5653 4.69252 13.1406C4.68 11.8939 4.58224 11.7179 6.05186 11.6663C7.02404 11.6334 7.5379 12.2216 8.14093 12.7464C8.3302 12.9106 8.33411 13.1703 8.23869 13.4018C8.19504 13.5195 8.11557 13.6206 8.01145 13.6907C7.90734 13.7609 7.78384 13.7966 7.65835 13.7929C7.25556 13.8007 6.85276 13.7929 6.44996 13.7929V13.7937ZM7.67087 13.1906C7.14215 12.4953 6.53678 12.1543 5.71945 12.2982C5.58649 12.3217 5.38627 12.2302 5.33543 12.3921C5.2687 12.6304 5.27005 12.8827 5.33934 13.1202C5.34872 13.1562 5.44884 13.1867 5.50671 13.1875C6.20437 13.1922 6.90282 13.1906 7.67087 13.1906Z" fill="#333333" stroke="#333333" stroke-width="0.2"/>
<path d="M18.5003 13.7944H17.4053C17.087 13.7944 16.8406 13.6685 16.7382 13.3596C16.6357 13.0506 16.7382 12.8003 16.9884 12.5986C17.27 12.3639 17.5508 12.1363 17.8269 11.9001C17.9851 11.7622 18.1896 11.6893 18.3994 11.696C18.803 11.696 19.2058 11.6905 19.6086 11.696C20.0778 11.7061 20.2867 11.9236 20.2992 12.3999C20.3054 12.6205 20.3047 12.8418 20.2992 13.0624C20.2882 13.5629 20.0802 13.778 19.5882 13.789C19.2285 13.8015 18.864 13.7952 18.5003 13.7944ZM17.3388 13.193H19.1815C19.7024 13.193 19.7056 13.193 19.6907 12.6549C19.6868 12.5141 19.754 12.3342 19.5069 12.3006C18.6419 12.1872 17.8981 12.3655 17.3388 13.193Z" fill="#333333" stroke="#333333" stroke-width="0.2"/>
<path d="M12.4834 14.69C13.3307 14.69 14.1777 14.69 15.0245 14.69C15.2443 14.69 15.475 14.6962 15.4797 14.9856C15.4844 15.275 15.2513 15.2914 15.0331 15.2914C13.339 15.2914 11.6444 15.2914 9.94926 15.2914C9.72714 15.2914 9.50189 15.2648 9.51283 14.9786C9.52222 14.7181 9.72948 14.6931 9.94066 14.6939C10.7901 14.69 11.6348 14.69 12.4834 14.69Z" fill="#333333" stroke="#333333" stroke-width="0.2"/>
<path d="M6.35617 14.69C6.67997 14.69 7.00377 14.69 7.32836 14.69C7.5411 14.69 7.69361 14.7784 7.69048 15.0028C7.69048 15.207 7.53406 15.2891 7.34322 15.2899C6.68206 15.293 6.0209 15.293 5.35974 15.2899C5.16968 15.2899 5.01717 15.2046 5.01795 14.9981C5.01795 14.7737 5.17437 14.6908 5.38398 14.6923C5.70779 14.69 6.03159 14.69 6.35617 14.69Z" fill="#333333" stroke="#333333" stroke-width="0.2"/>
<path d="M18.6622 14.69C18.986 14.69 19.3098 14.69 19.6344 14.69C19.8323 14.69 19.9699 14.7799 19.9785 14.9786C19.9871 15.1772 19.8456 15.2836 19.6524 15.2852C18.9782 15.2899 18.304 15.2899 17.6298 15.2852C17.4366 15.2852 17.2943 15.1804 17.3037 14.9778C17.313 14.7752 17.4523 14.69 17.6509 14.6908C17.988 14.69 18.3251 14.69 18.6622 14.69Z" fill="#333333" stroke="#333333" stroke-width="0.2"/>
</svg>
