<svg width="60" height="60" viewBox="0 0 60 60" fill="none" xmlns="http://www.w3.org/2000/svg">
<g clip-path="url(#clip0_3_4356)">
<path d="M17.962 32.1495C18.6692 30.5215 18.5205 29.7727 17.2808 28.6351C15.7395 27.2686 14.6318 25.481 14.0944 23.4927C13.9356 22.7405 13.4948 22.0777 12.8626 21.6403C10.5556 19.9966 10.0414 17.1501 11.5238 14.7106C11.7613 14.3166 11.9152 13.9905 11.7847 13.5131C10.5712 9.19246 13.0139 4.16742 18.236 2.10626C21.2513 0.937729 24.4983 0.490972 27.7172 0.801737C29.6405 0.968717 31.2325 1.72795 31.9867 3.71083C32.3395 4.55772 32.9576 5.26727 33.7483 5.73285C36.8643 7.77052 37.4384 9.47684 36.3136 13.0382C36.1858 13.4426 36.037 13.7635 36.3737 14.2279C38.2005 16.7483 37.6655 20.0331 35.1105 21.8672C34.6861 22.1601 34.3821 22.5966 34.2546 23.0961C33.6118 25.4178 32.2851 27.4924 30.447 29.05C29.664 29.7257 29.6066 32.0582 30.3034 32.7887C30.6557 33.1566 30.8932 32.8331 31.0394 32.6322C32.493 30.6467 34.5103 30.9128 36.4885 31.3277C41.9689 32.5122 45.8574 35.6117 47.5303 41.0725C49.2162 46.5802 49.3571 52.2914 49.4015 57.9896C49.4015 59.1637 48.689 59.2941 47.7573 59.2941C39.0165 59.2802 30.2747 59.2802 21.5321 59.2941C14.966 59.2941 8.39904 59.2941 1.83121 59.2941C0.114002 59.2941 -0.0138747 59.1689 0.00439343 57.4156C0.0487589 52.5341 0.309732 47.676 1.35624 42.8936C2.87249 35.9535 8.14155 31.4138 14.9269 31.0903C16.2526 31.0276 16.2526 31.0276 17.962 32.1495ZM25.1231 57.3791C29.343 57.3791 33.5604 57.3452 37.7777 57.4026C38.8216 57.4026 39.1113 57.113 39.0826 56.098C39.0147 53.3168 39.0591 50.5329 39.0617 47.7491C39.0617 47.2272 39.0225 46.6872 39.5836 46.3767C40.3196 45.9723 40.959 46.5045 40.9668 47.6134C40.9903 50.5251 40.9981 53.4394 40.9668 56.3511C40.9668 57.1338 41.1808 57.4313 41.9976 57.3947C43.5165 57.3373 45.0406 57.3634 46.5621 57.3947C47.1336 57.3947 47.4676 57.2669 47.4468 56.612C47.2745 51.3548 47.1988 46.0793 45.4503 41.0307C44.1141 37.1667 41.2747 34.8473 37.475 33.5689C36.726 33.3079 36.3084 33.4593 35.9091 34.1715C34.3224 36.9189 32.6783 39.6349 31.0263 42.3431C30.6618 42.9242 30.4732 43.5984 30.4835 44.2842C30.5096 47.5456 30.5018 50.8069 30.4835 54.0656C30.4835 55.6023 30.2695 55.8163 28.7637 55.8215C25.9382 55.8215 23.111 55.8215 20.282 55.8215C18.6196 55.8215 18.4683 55.678 18.4552 54.0578C18.4552 50.9269 18.4317 47.796 18.4552 44.6652C18.4857 43.7995 18.2567 42.9446 17.7976 42.21C16.1978 39.6219 14.6059 37.0258 13.1157 34.3829C12.5938 33.4619 12.0718 33.4358 11.2289 33.7671C7.12375 35.4135 4.43833 38.3095 3.40749 42.6692C2.33228 47.1803 2.08957 51.7748 1.91472 56.385C1.8834 57.2278 2.22528 57.4104 2.9821 57.3895C4.67582 57.3478 6.37476 57.3373 8.06847 57.3895C8.90881 57.4182 9.19588 57.1704 9.18022 56.2989C9.13064 53.4733 9.16456 50.6477 9.15934 47.8195C9.15934 47.0864 9.20632 46.2932 10.1276 46.2671C11.0488 46.241 11.1193 47.0498 11.1219 47.7804C11.1219 50.5199 11.1688 53.2594 11.101 55.9963C11.0749 57.0556 11.362 57.4156 12.4685 57.4C16.6858 57.3295 20.9058 57.3791 25.1231 57.3791ZM24.3558 29.4126C24.4889 29.4126 24.7943 29.3944 25.0944 29.3448C29.3456 28.6612 31.4543 25.7834 32.5791 21.9507C32.8009 21.1915 33.1011 20.6984 33.8527 20.3096C35.8935 19.2504 36.0761 16.3961 34.2415 15.1359C33.8161 14.8437 33.6308 14.4158 33.4194 13.9931C32.655 12.479 31.6777 11.0821 30.5174 9.84472C30.2303 9.53946 29.9041 8.98112 29.3483 9.51598C28.1478 10.6796 26.6524 10.7683 25.0996 10.7475C22.5368 10.7188 19.9663 10.6901 17.4348 11.1492C15.7985 11.4415 14.491 12.2137 14.2588 14.0923C14.1718 14.5187 13.9538 14.9073 13.635 15.2037C12.0066 16.9883 12.4006 19.2895 14.5589 20.3905C15.3288 20.7819 15.5715 21.3141 15.7307 22.0916C16.6023 26.3705 20.1411 29.4126 24.3558 29.4126ZM13.4811 11.0762C15.5689 9.17419 17.8367 8.98895 20.102 8.90546C21.9653 8.82719 23.8339 8.84284 25.6998 8.83241C26.642 8.83241 27.5006 8.64716 28.1921 7.93228C29.3509 6.73473 29.6954 6.71386 31.0054 7.69747C32.2059 8.6002 33.0593 9.80297 33.9153 11.0084C34.1189 11.2927 34.1763 11.7545 34.6512 11.7911C35.2384 9.90995 35.0244 8.98895 33.3672 7.85923C31.8901 6.85474 30.6505 5.72763 29.9746 4.03957C29.6875 3.31947 29.022 2.99595 28.3331 2.89681C23.9905 2.32803 19.8358 2.80027 16.2422 5.56848C14.6163 6.82344 13.6429 8.54019 13.4811 11.0762ZM34.1893 33.2297C33.3855 32.9009 33.0828 33.441 32.7226 33.7515C30.6035 35.6196 28.4957 37.4998 26.3993 39.3923C24.4654 41.1534 24.4811 41.1534 22.5421 39.327C20.5561 37.4433 18.5544 35.5752 16.5684 33.6941C16.0725 33.2245 15.5871 32.8174 14.8146 33.2323C14.8562 33.3964 14.913 33.5562 14.9843 33.7097C16.5188 36.2823 18.0768 38.8444 19.5905 41.4299C19.9167 41.9857 20.3499 42.0483 20.8953 42.0431C22.6334 42.0431 24.395 41.863 26.1148 42.0822C28.2991 42.364 29.5074 41.5056 30.4652 39.6114C31.5535 37.4172 32.9236 35.3691 34.1893 33.2297ZM20.3577 48.9544C20.3577 50.3007 20.3864 51.6444 20.3577 52.988C20.3394 53.6586 20.5691 53.9169 21.2476 53.909C23.3354 53.8803 25.4232 53.8725 27.4953 53.909C28.3096 53.9247 28.5392 53.5986 28.5392 52.8315C28.5062 50.2224 28.5062 47.6195 28.5392 45.0226C28.5392 44.2242 28.2783 43.9633 27.4953 43.979C25.4571 44.0181 23.4163 44.0259 21.3781 43.979C20.5482 43.9607 20.3473 44.2947 20.376 45.0539C20.4099 46.3506 20.3734 47.6551 20.3734 48.9544H20.3577ZM28.7324 34.1559C28.3214 33.3384 28.0564 32.4555 27.9494 31.5468C27.8868 30.7485 27.5841 30.7641 26.9577 30.952C25.4137 31.425 23.7745 31.4969 22.195 31.1607C20.4438 30.8189 20.4412 30.8137 20.0002 32.5644C19.841 33.1984 19.3999 33.8011 20.1489 34.4429C21.4303 35.5413 22.6412 36.731 23.8548 37.9077C24.2697 38.3095 24.5881 38.406 25.0552 37.9703C26.1357 36.9684 27.2579 36.0109 28.3566 35.0273C28.6019 34.8342 28.8889 34.6568 28.748 34.1559H28.7324Z" fill="#FA8B02" stroke="#FA8B02" stroke-width="0.2"/>
<path d="M42.9398 16.6934V3.6638C42.9398 3.53334 42.9398 3.40289 42.9398 3.27244C42.9659 2.5993 43.1591 2.02531 43.9655 2.05401C44.6832 2.0801 44.9728 2.62539 44.8658 3.2333C44.6257 4.62915 45.4139 5.32055 46.4108 6.07456C50.6438 9.26283 54.822 12.5241 59.0132 15.7698C59.5143 16.1559 60.2189 16.503 59.9397 17.3092C59.6604 18.1153 58.9271 17.9927 58.2746 17.9927H47.9819C44.8972 17.9927 44.8971 17.9927 44.8971 21.1445C44.8971 24.0109 44.8971 26.8809 44.8971 29.7543C44.8971 30.4614 44.9441 31.2937 43.9785 31.3198C42.9085 31.3589 42.9346 30.477 42.9346 29.7256C42.9346 25.3824 42.9364 21.0384 42.9398 16.6934ZM55.7902 15.7333C52.3793 13.1086 49.0049 10.4943 45.5966 7.89046C44.9311 7.36865 44.9076 7.89046 44.9076 8.37053C44.9076 10.5439 44.9467 12.7198 44.8867 14.8932C44.8632 15.8376 45.2312 16.0698 46.1055 16.0568C48.9762 16.0177 51.8469 16.0568 54.7176 16.0359C55.0386 16.0333 55.4066 16.1559 55.7902 15.7333Z" fill="#FA8B02" stroke="#FA8B02" stroke-width="0.2"/>
<path d="M24.5045 45.1191C25.0708 45.1191 25.6371 45.093 26.2008 45.1191C26.322 45.1142 26.4429 45.1339 26.5562 45.1769C26.6696 45.22 26.773 45.2855 26.8603 45.3696C26.9476 45.4538 27.017 45.5547 27.0642 45.6663C27.1114 45.778 27.1356 45.898 27.1351 46.0193C27.1523 46.1398 27.1434 46.2627 27.1089 46.3794C27.0744 46.4962 27.0152 46.6042 26.9352 46.6961C26.8552 46.7879 26.7564 46.8615 26.6454 46.9117C26.5344 46.9619 26.414 46.9877 26.2922 46.9872C25.0786 47.0316 23.8599 47.0264 22.6385 46.9872C22.5167 46.9902 22.3956 46.967 22.2835 46.9194C22.1713 46.8718 22.0706 46.8008 21.988 46.7111C21.9055 46.6215 21.8431 46.5152 21.805 46.3995C21.7668 46.2838 21.7538 46.1613 21.7669 46.0401C21.7614 45.9188 21.7811 45.7977 21.8246 45.6844C21.8682 45.5711 21.9347 45.4679 22.0199 45.3815C22.1052 45.295 22.2074 45.2271 22.3201 45.182C22.4328 45.1368 22.5537 45.1154 22.6751 45.1191C23.2884 45.0957 23.8964 45.1217 24.5045 45.1191Z" fill="#FA8B02" stroke="#FA8B02" stroke-width="0.2"/>
<path d="M24.5021 49.865C23.894 49.865 23.2859 49.8885 22.6752 49.865C22.5541 49.8688 22.4335 49.8474 22.321 49.8022C22.2085 49.757 22.1066 49.689 22.0218 49.6025C21.9369 49.5159 21.8709 49.4127 21.828 49.2994C21.7851 49.1861 21.7661 49.0651 21.7723 48.944C21.7592 48.823 21.7722 48.7006 21.8103 48.585C21.8485 48.4694 21.911 48.3633 21.9935 48.2739C22.0761 48.1844 22.1768 48.1136 22.289 48.0663C22.4012 48.019 22.5222 47.9962 22.6439 47.9996C23.8166 47.9682 24.9892 47.9682 26.1618 47.9996C26.7699 48.0126 27.1509 48.3596 27.1301 48.9884C27.1092 49.5493 26.7386 49.8494 26.1932 49.8781C25.6477 49.9068 25.0684 49.8676 24.5021 49.865Z" fill="#FA8B02" stroke="#FA8B02" stroke-width="0.2"/>
<path d="M24.4053 52.7219C23.8443 52.7219 23.2806 52.7219 22.7168 52.7219C22.5964 52.7302 22.4756 52.7135 22.362 52.6728C22.2483 52.6321 22.1444 52.5683 22.0566 52.4855C21.9688 52.4027 21.8992 52.3025 21.852 52.1915C21.8048 52.0804 21.7812 51.9607 21.7826 51.8401C21.7635 51.7203 21.7709 51.5977 21.8043 51.4811C21.8377 51.3645 21.8962 51.2566 21.9759 51.1651C22.0555 51.0735 22.1542 51.0005 22.2651 50.9513C22.376 50.902 22.4964 50.8777 22.6177 50.8799C23.8286 50.846 25.0447 50.8486 26.2556 50.8799C26.3768 50.8744 26.4977 50.8951 26.6101 50.9405C26.7226 50.986 26.8239 51.0552 26.9071 51.1434C26.9903 51.2315 27.0536 51.3366 27.0925 51.4515C27.1314 51.5663 27.145 51.6882 27.1325 51.8088C27.1381 51.9292 27.1185 52.0496 27.0749 52.1621C27.0314 52.2746 26.965 52.3768 26.8798 52.4622C26.7946 52.5476 26.6926 52.6143 26.5802 52.6581C26.4678 52.702 26.3475 52.7219 26.2269 52.7167C25.6215 52.748 25.0134 52.7167 24.4001 52.7167L24.4053 52.7219Z" fill="#FA8B02" stroke="#FA8B02" stroke-width="0.2"/>
</g>
<defs>
<clipPath id="clip0_3_4356">
<rect width="60" height="60" fill="white" transform="translate(0.00292969)"/>
</clipPath>
</defs>
</svg>
