<svg width="61" height="60" viewBox="0 0 61 60" fill="none" xmlns="http://www.w3.org/2000/svg">
<g clip-path="url(#clip0_3_4348)">
<path d="M40.8302 58.0564C41.6676 56.8381 42.4371 55.7999 43.1154 54.7042C43.3431 54.2826 43.6899 53.9374 44.1125 53.7115C44.5351 53.4856 45.0148 53.389 45.4919 53.4338C46.4467 53.4729 47.4067 53.3608 48.3615 53.4155C49.5276 53.4808 49.4597 53.0425 48.9771 52.2468C48.4371 51.3573 47.9754 50.4208 47.4771 49.5025C47.1693 48.939 47.1041 48.3834 47.7562 48.0547C48.3589 47.7495 48.7397 48.1616 49.0084 48.6521C49.7362 49.9877 50.4902 51.3103 51.1606 52.6747C51.7606 53.8929 51.1267 54.9338 49.7362 55.0486C48.6559 55.174 47.5671 55.2124 46.4806 55.1634C45.2728 55.0668 44.5423 55.5625 43.9789 56.5616C43.5536 57.3155 43.0293 58.0173 42.531 58.7268C41.318 60.4512 40.0893 60.399 39.0823 58.5573C37.1858 55.0877 35.2867 51.6181 33.4423 48.1225C32.9858 47.2538 32.5919 46.706 31.5067 47.246C31.1877 47.3966 30.8389 47.4734 30.4862 47.4707C30.1335 47.468 29.7859 47.3858 29.4693 47.2303C28.4467 46.7295 28.0658 47.2068 27.6223 48.0521C25.7962 51.5138 23.918 54.9416 22.0528 58.3773C20.9258 60.4642 19.5093 60.6312 18.4502 58.5468C17.0415 55.7764 15.0276 54.8242 12.0171 55.0355C9.63799 55.2025 9.09277 54.0573 10.2458 51.9338C11.9849 48.7251 13.7241 45.5164 15.4632 42.3077C16.2589 40.8364 16.0319 39.7851 14.6154 38.799C13.8845 38.3284 13.1188 37.9142 12.3249 37.5599C10.2745 36.5608 9.12408 34.9721 9.41886 32.6634C9.72147 30.2738 9.12668 28.2468 7.68929 26.3321C6.4006 24.6181 6.41625 22.7164 7.71016 21.0051C8.41011 20.1197 8.92255 19.101 9.2163 18.0112C9.51006 16.9214 9.57897 15.7833 9.41886 14.666C9.14234 12.4225 10.2015 10.7712 12.2623 9.88684C14.2762 9.02337 15.7502 7.72945 16.5902 5.65032C17.5423 3.3025 19.4128 2.27467 21.9067 2.62163C22.8723 2.77076 23.8584 2.71645 24.8018 2.46218C25.7452 2.20792 26.6251 1.7593 27.3849 1.1451C29.4328 -0.420113 31.5849 -0.420113 33.6276 1.1451C34.4085 1.76733 35.3107 2.21979 36.2765 2.47358C37.2422 2.72737 38.2503 2.7769 39.2362 2.61902C41.618 2.30597 43.4362 3.28423 44.3597 5.53815C45.2206 7.64076 46.6789 9.01293 48.7502 9.88945C50.8215 10.766 51.8806 12.4251 51.5962 14.666C51.4378 15.7826 51.5073 16.9198 51.8005 18.0089C52.0938 19.098 52.6046 20.1163 53.3023 21.0025C54.6302 22.7712 54.5806 24.6912 53.2606 26.4442C51.878 28.2703 51.2962 30.2321 51.5962 32.5329C51.9145 34.9486 50.7354 36.5921 48.578 37.6277C47.378 38.2042 46.0971 38.6712 45.3562 39.9468C44.9676 40.6173 44.8606 41.1651 45.2936 41.8564C45.8467 42.7381 46.3032 43.6825 46.7936 44.6008C47.0936 45.1616 47.1536 45.7329 46.4936 46.046C45.8962 46.3303 45.5232 45.9208 45.2493 45.4251C45.1658 45.2738 45.0876 45.1173 44.9884 44.966C44.6415 44.366 44.4276 43.5103 43.9058 43.2364C43.3058 42.9234 42.9902 43.9225 42.4449 44.2173C41.1406 44.9268 39.7528 44.8225 38.3676 44.739C37.1336 44.666 35.9336 44.6764 34.8563 45.4147C34.4676 45.6755 34.1571 45.8842 34.4623 46.4373C36.5702 50.2408 38.6441 54.0521 40.8302 58.0564ZM22.6632 4.42423C20.0545 3.76684 18.5858 4.96945 17.7067 7.2938C16.9867 9.20597 15.4971 10.3773 13.6554 11.1129C11.7458 11.8773 10.8641 13.1816 11.1849 15.2868C11.368 16.3581 11.3149 17.4564 11.0292 18.5049C10.7435 19.5535 10.2322 20.527 9.53103 21.3573C8.28147 22.886 8.27103 24.4564 9.51799 25.9825C10.2241 26.8139 10.7399 27.7897 11.0292 28.8415C11.3185 29.8933 11.3744 30.9956 11.1928 32.0712C10.8823 34.1581 11.6884 35.4808 13.6449 36.2451C14.6324 36.5974 15.5295 37.1643 16.2716 37.905C17.0136 38.6457 17.5821 39.5417 17.9362 40.5286C18.6641 42.4877 20.0232 43.3121 22.1102 42.9964C23.1631 42.8106 24.2439 42.8575 25.2768 43.1337C26.3097 43.41 27.2697 43.9089 28.0893 44.5955C29.6963 45.8999 31.3293 45.9208 32.9441 44.6086C33.7618 43.92 34.7202 43.4186 35.7522 43.1396C36.7842 42.8607 37.8647 42.8109 38.918 42.9938C40.9789 43.3095 42.3589 42.5164 43.0919 40.5495C43.4447 39.5619 44.0117 38.6648 44.7523 37.9224C45.4929 37.1799 46.3887 36.6107 47.3754 36.2555C49.3189 35.5068 50.1589 34.1895 49.8458 32.1025C49.6624 31.0268 49.7163 29.9241 50.0038 28.8714C50.2913 27.8188 50.8054 26.8417 51.5102 26.0086C52.7519 24.4903 52.7728 22.9199 51.5102 21.386C50.8029 20.5547 50.2864 19.5785 49.997 18.5261C49.7077 17.4737 49.6525 16.3707 49.8354 15.2947C50.1536 13.2077 49.3136 11.8642 47.3858 11.1208C46.3823 10.7506 45.4722 10.1649 44.7195 9.40503C43.9668 8.64513 43.3899 7.72946 43.0293 6.7225C42.3302 4.89641 41.0415 4.07989 39.0641 4.37467C36.7554 4.69554 34.6476 4.19206 32.8215 2.7051C31.2249 1.40076 29.691 1.51815 28.0945 2.75989C26.498 4.00163 24.7345 4.73467 22.6632 4.42423ZM20.198 58.0486C22.371 54.0703 24.4215 50.2981 26.498 46.5416C26.8084 45.9755 26.6128 45.7225 26.1432 45.4042C24.8389 44.5225 23.4067 44.7051 21.9693 44.7781C20.3702 44.8564 18.8102 44.7781 17.6806 43.4242C17.2136 42.8634 16.9971 43.1634 16.7571 43.5964C15.1189 46.6103 13.4823 49.6208 11.8476 52.6277C11.5397 53.1938 11.678 53.4103 12.3119 53.4103C13.3971 53.4103 14.4849 53.4834 15.5676 53.4442C16.6502 53.4051 17.3649 53.8408 17.9154 54.7486C18.5884 55.7921 19.3371 56.8016 20.198 58.0486Z" fill="#FA8B02"/>
<path d="M30.6746 5.50162C35.4486 5.5688 40.005 7.50915 43.3617 10.9044C46.7185 14.2997 48.6067 18.878 48.6193 23.6524C48.632 28.4269 46.7681 33.0151 43.4294 36.4281C40.0907 39.8412 35.5447 41.8056 30.7711 41.8981C17.4668 42.1303 8.33632 28.0042 14.0233 15.9938C14.172 15.6781 14.3285 15.3677 14.5033 15.0677C14.8476 14.4729 15.1685 13.6538 16.0476 14.1625C16.8459 14.6242 16.345 15.2894 16.0476 15.8634C13.752 20.366 13.4076 24.9938 15.2441 29.7234C17.8528 36.4799 24.8963 40.7764 32.1407 40.0486C39.385 39.3208 45.445 33.7094 46.6737 26.5903C47.9076 19.4294 44.5502 12.5999 38.065 9.11206C32.1015 5.89032 24.4241 6.94945 19.2824 11.6947C19.0675 11.9099 18.8382 12.1103 18.5963 12.2947C18.4286 12.4177 18.2214 12.4745 18.0144 12.4544C17.8074 12.4342 17.6151 12.3384 17.4743 12.1853C17.3335 12.0323 17.2541 11.8327 17.2513 11.6247C17.2484 11.4167 17.3224 11.215 17.4589 11.0581C17.9644 10.5205 18.5056 10.0176 19.0789 9.55293C22.4702 6.80336 26.3442 5.4938 30.6746 5.50162Z" fill="#FA8B02"/>
<path d="M21.8806 33.4069C22.1571 31.7243 22.4206 29.919 22.7597 28.1243C22.8367 27.8338 22.8284 27.5273 22.7359 27.2415C22.6433 26.9556 22.4705 26.7024 22.238 26.5121C21.0562 25.4217 19.9293 24.2738 18.7658 23.1651C18.0145 22.4503 17.6023 21.6416 17.9623 20.5982C18.3093 19.6043 19.1101 19.2625 20.0806 19.1347C21.5858 18.9364 23.0832 18.6495 24.5936 18.4903C25.4649 18.399 26.0075 18.0651 26.3727 17.2408C27.0223 15.7721 27.7788 14.353 28.4858 12.9077C28.9032 12.0573 29.5632 11.5121 30.518 11.5121C31.4727 11.5121 32.1327 12.0573 32.5501 12.9103C33.2571 14.353 34.0162 15.7799 34.6632 17.2434C35.0284 18.073 35.5788 18.3912 36.4449 18.4877C38.0388 18.6651 39.6223 18.9547 41.2136 19.1817C42.1058 19.3069 42.7788 19.7321 43.071 20.6008C43.3919 21.5217 43.1258 22.3147 42.4475 22.9773C41.2371 24.1643 40.0371 25.3617 38.7954 26.5173C38.5628 26.7076 38.39 26.9608 38.2975 27.2467C38.2049 27.5326 38.1967 27.839 38.2736 28.1295C38.5762 29.6634 38.7954 31.2156 39.0562 32.7547C39.2414 33.7982 39.218 34.7712 38.2736 35.4521C37.371 36.0886 36.4684 35.8695 35.5736 35.3869C34.1571 34.6251 32.7197 33.9051 31.3136 33.1251C31.0796 32.9767 30.8082 32.8978 30.531 32.8978C30.2539 32.8978 29.9824 32.9767 29.7484 33.1251C28.2275 33.9599 26.7014 34.7973 25.131 35.5434C23.3962 36.3599 21.8336 35.3451 21.8806 33.4069ZM23.7067 33.1277C23.5371 34.1399 23.9675 34.1712 24.7188 33.7721C26.1745 32.9895 27.6562 32.2643 29.0988 31.4608C29.5253 31.1973 30.0167 31.0577 30.518 31.0577C31.0192 31.0577 31.5106 31.1973 31.9371 31.4608C33.2649 32.199 34.6188 32.8903 35.9727 33.5843C36.3458 33.7747 36.7554 34.2156 37.1519 33.939C37.6032 33.6208 37.3006 33.0443 37.2327 32.5982C37.0058 31.0956 36.7527 29.5956 36.4501 28.1034C36.3371 27.6376 36.3555 27.1495 36.5034 26.6936C36.6512 26.2376 36.9227 25.8316 37.2875 25.5208C38.524 24.3625 39.7214 23.173 40.9397 21.9703C41.1536 21.7617 41.4614 21.5425 41.3336 21.2086C41.2058 20.8747 40.8614 20.8799 40.551 20.8356C38.9206 20.593 37.2927 20.293 35.6545 20.113C34.4858 19.9851 33.7632 19.4295 33.2832 18.373C32.5997 16.8703 31.8301 15.4095 31.0919 13.9382C30.9614 13.6773 30.8806 13.3251 30.4997 13.3303C30.1188 13.3356 30.0458 13.6851 29.9154 13.9486C29.1327 15.5138 28.3632 17.0608 27.6093 18.626C27.4367 19.0264 27.1597 19.373 26.8072 19.6295C26.4548 19.8861 26.0398 20.0431 25.6058 20.0843C23.9336 20.3138 22.2614 20.5747 20.5867 20.8356C20.2449 20.8851 19.8197 20.8356 19.6919 21.2295C19.564 21.6234 19.9527 21.8425 20.1849 22.0799C21.2675 23.1495 22.324 24.2477 23.4588 25.2573C24.4345 26.1234 24.8101 27.0834 24.531 28.3877C24.1919 29.9477 23.9753 31.5443 23.7067 33.1277Z" fill="#FA8B02"/>
</g>
<defs>
<clipPath id="clip0_3_4348">
<rect width="60" height="60" fill="white" transform="translate(0.50293)"/>
</clipPath>
</defs>
</svg>
