<svg width="81" height="80" viewBox="0 0 81 80" fill="none" xmlns="http://www.w3.org/2000/svg">
<path d="M0.5 12C0.5 5.37258 5.87258 0 12.5 0H68.5C75.1274 0 80.5 5.37258 80.5 12V68C80.5 74.6274 75.1274 80 68.5 80H12.5C5.87258 80 0.5 74.6274 0.5 68V12Z" fill="#FA8B02"/>
<path d="M52.5 52L46.5186 46.008M49.8333 38C49.8333 41.0058 48.6393 43.8885 46.5138 46.0139C44.3884 48.1393 41.5057 49.3333 38.5 49.3333C35.4942 49.3333 32.6115 48.1393 30.4861 46.0139C28.3607 43.8885 27.1666 41.0058 27.1666 38C27.1666 34.9942 28.3607 32.1115 30.4861 29.9861C32.6115 27.8607 35.4942 26.6667 38.5 26.6667C41.5057 26.6667 44.3884 27.8607 46.5138 29.9861C48.6393 32.1115 49.8333 34.9942 49.8333 38V38Z" stroke="white" stroke-width="2" stroke-linecap="round"/>
</svg>
