<svg width="51" height="50" viewBox="0 0 51 50" fill="none" xmlns="http://www.w3.org/2000/svg">
<path d="M25.8 3.125C13.72 3.125 3.92505 12.9199 3.92505 25C3.92505 37.0801 13.72 46.875 25.8 46.875C37.8801 46.875 47.675 37.0801 47.675 25C47.675 12.9199 37.8801 3.125 25.8 3.125ZM36.3127 19.6143C36.3274 19.8438 36.3274 20.083 36.3274 20.3174C36.3274 27.4854 30.8684 35.7422 20.8928 35.7422C17.8167 35.7422 14.9651 34.8486 12.5627 33.3105C13.0022 33.3594 13.4221 33.3789 13.8713 33.3789C16.4104 33.3789 18.7444 32.5195 20.6047 31.0645C18.2219 31.0156 16.22 29.4531 15.5364 27.3047C16.3713 27.4268 17.1233 27.4268 17.9827 27.207C16.7557 26.9578 15.653 26.2914 14.8617 25.3212C14.0703 24.351 13.6393 23.1368 13.6418 21.8848V21.8164C14.3596 22.2217 15.2043 22.4707 16.0881 22.5049C15.3452 22.0097 14.7359 21.3389 14.3143 20.5519C13.8926 19.7649 13.6717 18.886 13.6711 17.9932C13.6711 16.9824 13.9348 16.0596 14.4084 15.2588C15.7703 16.9352 17.4696 18.3064 19.3961 19.283C21.3225 20.2597 23.4329 20.8201 25.5901 20.9277C24.8235 17.2412 27.5774 14.2578 30.8879 14.2578C32.4504 14.2578 33.8567 14.9121 34.8479 15.9668C36.0735 15.7373 37.2454 15.2783 38.2903 14.6631C37.885 15.918 37.0354 16.9775 35.9075 17.6465C37.0012 17.5293 38.0559 17.2266 39.0325 16.8018C38.2952 17.8857 37.3723 18.8477 36.3127 19.6143Z" fill="#FA8B02"/>
</svg>
