<svg width="51" height="50" viewBox="0 0 51 50" fill="none" xmlns="http://www.w3.org/2000/svg">
<path fill-rule="evenodd" clip-rule="evenodd" d="M3.92505 25C3.92505 12.9199 13.72 3.125 25.8 3.125C37.8801 3.125 47.675 12.9199 47.675 25C47.675 37.0801 37.8801 46.875 25.8 46.875C13.72 46.875 3.92505 37.0801 3.92505 25ZM25.8 14C22.812 14 22.438 14.012 21.265 14.066H21.264C20.094 14.12 19.294 14.306 18.594 14.577C17.8605 14.8534 17.1961 15.2865 16.647 15.846C16.0872 16.3953 15.6538 17.0601 15.377 17.794C15.106 18.494 14.919 19.294 14.866 20.466C14.813 21.638 14.8 22.012 14.8 25C14.8 27.987 14.812 28.361 14.866 29.536C14.92 30.706 15.106 31.506 15.377 32.206C15.6534 32.9399 16.0864 33.6047 16.646 34.154C17.1959 34.7133 17.861 35.146 18.595 35.422C19.295 35.694 20.095 35.881 21.265 35.934C22.438 35.987 22.812 36 25.8 36C28.788 36 29.162 35.988 30.336 35.934C31.506 35.88 32.306 35.694 33.006 35.422C33.739 35.146 34.404 34.714 34.954 34.154C35.5133 33.6042 35.946 32.9391 36.222 32.205C36.494 31.505 36.681 30.705 36.734 29.535C36.787 28.362 36.8 27.988 36.8 25C36.8 22.013 36.788 21.639 36.734 20.464C36.68 19.294 36.494 18.494 36.222 17.794C35.946 17.06 35.514 16.396 34.954 15.847C34.404 15.287 33.739 14.854 33.006 14.577C32.306 14.306 31.5061 14.119 30.334 14.066C29.162 14.013 28.788 14 25.8 14ZM25.8 15.982C28.737 15.982 29.085 15.993 30.245 16.046C31.318 16.095 31.9 16.274 32.288 16.425C32.7658 16.6012 33.198 16.8821 33.553 17.247C33.938 17.632 34.175 17.999 34.375 18.512C34.526 18.9 34.705 19.482 34.754 20.555C34.807 21.715 34.818 22.063 34.818 25C34.818 27.937 34.807 28.285 34.754 29.445C34.705 30.518 34.526 31.1 34.375 31.488C34.199 31.965 33.918 32.398 33.553 32.753C33.168 33.138 32.8011 33.375 32.288 33.575C31.9 33.726 31.318 33.905 30.245 33.954C29.085 34.007 28.738 34.018 25.8 34.018C22.862 34.018 22.515 34.007 21.355 33.954C20.282 33.905 19.7 33.726 19.312 33.575C18.835 33.399 18.402 33.118 18.047 32.753C17.682 32.398 17.401 31.965 17.225 31.488C17.074 31.1 16.895 30.518 16.846 29.445C16.793 28.285 16.782 27.937 16.782 25C16.782 22.063 16.793 21.715 16.846 20.555C16.895 19.482 17.074 18.9 17.225 18.512C17.4012 18.0343 17.6821 17.6021 18.047 17.247C18.432 16.862 18.799 16.625 19.312 16.425C19.7 16.274 20.282 16.095 21.355 16.046C22.515 15.993 22.863 15.982 25.8 15.982ZM26.867 28.5157C26.0534 28.7617 25.1797 28.7176 24.3951 28.391C23.8939 28.1832 23.445 27.8668 23.0808 27.4647C22.7165 27.0626 22.446 26.5847 22.2886 26.0655C22.1312 25.5463 22.0909 24.9986 22.1706 24.462C22.2502 23.9253 22.4479 23.413 22.7494 22.9619C23.0508 22.5107 23.4485 22.1321 23.9139 21.8531C24.3792 21.5742 24.9006 21.4019 25.4405 21.3486C25.9805 21.2954 26.5255 21.3625 27.0364 21.5451C27.5473 21.7278 28.0113 22.0215 28.3951 22.405C28.9971 23.005 29.3721 23.7953 29.4561 24.6411C29.5401 25.4869 29.3279 26.3356 28.8557 27.0422C28.3834 27.7489 27.6805 28.2697 26.867 28.5157ZM23.6363 19.7764C22.9504 20.0605 22.3271 20.477 21.802 21.002C20.7417 22.0623 20.146 23.5005 20.146 25C20.146 26.4995 20.7417 27.9377 21.802 28.998C22.8624 30.0583 24.3005 30.654 25.8 30.654C27.2996 30.654 28.7377 30.0583 29.798 28.998C30.3231 28.473 30.7395 27.8497 31.0237 27.1637C31.3078 26.4777 31.4541 25.7425 31.4541 25C31.4541 24.2575 31.3078 23.5223 31.0237 22.8363C30.7395 22.1503 30.3231 21.527 29.798 21.002C29.273 20.477 28.6497 20.0605 27.9638 19.7764C27.2778 19.4922 26.5425 19.346 25.8 19.346C25.0576 19.346 24.3223 19.4922 23.6363 19.7764ZM33.0144 19.754C32.9423 19.9177 32.8382 20.0653 32.708 20.188C32.455 20.4267 32.1189 20.5574 31.7711 20.5523C31.4233 20.5472 31.0912 20.4068 30.8452 20.1608C30.5992 19.9149 30.4588 19.5827 30.4538 19.2349C30.4487 18.8871 30.5794 18.551 30.818 18.298C30.9408 18.1679 31.0884 18.0637 31.2521 17.9917C31.4158 17.9197 31.5923 17.8812 31.7711 17.8786C31.95 17.876 32.1275 17.9093 32.2932 17.9765C32.459 18.0438 32.6095 18.1436 32.736 18.27C32.8625 18.3965 32.9623 18.5471 33.0295 18.7128C33.0968 18.8785 33.1301 19.0561 33.1275 19.2349C33.1249 19.4138 33.0864 19.5903 33.0144 19.754Z" fill="#FA8B02"/>
</svg>
